<svg width="60" height="60" viewBox="0 0 60 60" fill="none" xmlns="http://www.w3.org/2000/svg">
<g clip-path="url(#clip0_42_680)">
<path d="M28.3042 10.0291C28.3042 4.29738 28.3042 1.43152 26.4371 0.356817C24.5699 -0.717882 22.0804 0.715051 17.1013 3.58092L13.5019 5.65268C8.52284 8.51854 6.03331 9.95147 6.03331 12.1009C6.03331 14.2503 8.52284 15.6832 13.5019 18.5491L17.1013 20.6208C22.0804 23.4867 24.5699 24.9196 26.4371 23.8449C28.3042 22.7702 28.3042 19.9044 28.3042 14.1726V10.0291Z" fill="url(#paint0_linear_42_680)"/>
<path d="M11.8045 21.48C6.8254 18.6142 4.33586 17.1812 2.46871 18.2559C0.601562 19.3306 0.601562 22.1965 0.601562 27.9282V32.0718C0.601562 37.8035 0.601562 40.6694 2.46871 41.7441C4.33586 42.8188 6.8254 41.3858 11.8045 38.52L15.4039 36.4482C20.383 33.5823 22.8725 32.1494 22.8725 30C22.8725 27.8506 20.383 26.4177 15.4039 23.5518L11.8045 21.48Z" fill="url(#paint1_linear_42_680)"/>
<path d="M13.5019 41.4509C8.52283 44.3168 6.0333 45.7497 6.0333 47.8991C6.0333 50.0485 8.52283 51.4815 13.5019 54.3473L17.1013 56.4191C22.0804 59.285 24.5699 60.7179 26.4371 59.6432C28.3042 58.5685 28.3042 55.7026 28.3042 49.9709V45.8274C28.3042 40.0956 28.3042 37.2298 26.4371 36.1551C24.5699 35.0804 22.0804 36.5133 17.1013 39.3792L13.5019 41.4509Z" fill="url(#paint2_linear_42_680)"/>
<path d="M31.6991 49.9708C31.6991 55.7025 31.6991 58.5684 33.5662 59.6431C35.4334 60.7178 37.9229 59.2849 42.902 56.419L46.5013 54.3473C51.4804 51.4814 53.9699 50.0485 53.9699 47.8991C53.9699 45.7497 51.4804 44.3168 46.5013 41.4509L42.902 39.3792C37.9229 36.5133 35.4334 35.0804 33.5662 36.1551C31.6991 37.2298 31.6991 40.0957 31.6991 45.8274V49.9708Z" fill="url(#paint3_linear_42_680)"/>
<path d="M48.1987 38.5199C53.1777 41.3858 55.6673 42.8187 57.5344 41.744C59.4016 40.6693 59.4016 37.8034 59.4016 32.0717V27.9283C59.4016 22.1966 59.4016 19.3307 57.5344 18.256C55.6673 17.1813 53.1777 18.6142 48.1987 21.4801L44.5993 23.5518C39.6203 26.4177 37.1307 27.8506 37.1307 30C37.1307 32.1494 39.6203 33.5823 44.5993 36.4482L48.1987 38.5199Z" fill="url(#paint4_linear_42_680)"/>
<path d="M46.5013 18.5491C51.4804 15.6832 53.9699 14.2503 53.9699 12.1009C53.9699 9.95151 51.4804 8.51858 46.5013 5.65272L42.902 3.58101C37.9229 0.71515 35.4334 -0.71778 33.5662 0.356918C31.6991 1.43162 31.6991 4.29748 31.6991 10.0292V14.1726C31.6991 19.9043 31.6991 22.7702 33.5662 23.8449C35.4334 24.9196 37.9229 23.4867 42.902 20.6208L46.5013 18.5491Z" fill="url(#paint5_linear_42_680)"/>
</g>
<defs>
<linearGradient id="paint0_linear_42_680" x1="59.4016" y1="28.2237" x2="0.601562" y2="28.2237" gradientUnits="userSpaceOnUse">
<stop stop-color="#FF8432"/>
<stop offset="1" stop-color="#E03FD0"/>
</linearGradient>
<linearGradient id="paint1_linear_42_680" x1="59.4016" y1="28.2237" x2="0.601562" y2="28.2237" gradientUnits="userSpaceOnUse">
<stop stop-color="#FF8432"/>
<stop offset="1" stop-color="#E03FD0"/>
</linearGradient>
<linearGradient id="paint2_linear_42_680" x1="59.4016" y1="28.2237" x2="0.601562" y2="28.2237" gradientUnits="userSpaceOnUse">
<stop stop-color="#FF8432"/>
<stop offset="1" stop-color="#E03FD0"/>
</linearGradient>
<linearGradient id="paint3_linear_42_680" x1="59.4016" y1="28.2237" x2="0.601562" y2="28.2237" gradientUnits="userSpaceOnUse">
<stop stop-color="#FF8432"/>
<stop offset="1" stop-color="#E03FD0"/>
</linearGradient>
<linearGradient id="paint4_linear_42_680" x1="59.4016" y1="28.2237" x2="0.601562" y2="28.2237" gradientUnits="userSpaceOnUse">
<stop stop-color="#FF8432"/>
<stop offset="1" stop-color="#E03FD0"/>
</linearGradient>
<linearGradient id="paint5_linear_42_680" x1="59.4016" y1="28.2237" x2="0.601562" y2="28.2237" gradientUnits="userSpaceOnUse">
<stop stop-color="#FF8432"/>
<stop offset="1" stop-color="#E03FD0"/>
</linearGradient>
<clipPath id="clip0_42_680">
<rect width="60" height="60" fill="white"/>
</clipPath>
</defs>
</svg>
