<svg width="24" height="24" viewBox="0 0 24 24" fill="none" xmlns="http://www.w3.org/2000/svg">
<rect width="24" height="24" rx="12" fill="#F5F5F5"/>
<g filter="url(#filter0_d_2015_549)">
<path d="M10.5388 5.56339C11.3293 4.71758 12.6707 4.71758 13.4612 5.56339L13.6756 5.79281C14.0699 6.21467 14.6272 6.44553 15.2043 6.42603L15.5182 6.41542C16.6752 6.37632 17.6237 7.32478 17.5846 8.48183L17.574 8.79568C17.5545 9.37277 17.7853 9.93013 18.2072 10.3244L18.4366 10.5388C19.2824 11.3293 19.2824 12.6707 18.4366 13.4612L18.2072 13.6756C17.7853 14.0699 17.5545 14.6272 17.574 15.2043L17.5846 15.5182C17.6237 16.6752 16.6752 17.6237 15.5182 17.5846L15.2043 17.574C14.6272 17.5545 14.0699 17.7853 13.6756 18.2072L13.4612 18.4366C12.6707 19.2824 11.3293 19.2824 10.5388 18.4366L10.3244 18.2072C9.93013 17.7853 9.37277 17.5545 8.79568 17.574L8.48183 17.5846C7.32478 17.6237 6.37632 16.6752 6.41542 15.5182L6.42603 15.2043C6.44553 14.6272 6.21467 14.0699 5.79281 13.6756L5.56339 13.4612C4.71758 12.6707 4.71758 11.3293 5.56339 10.5388L5.79281 10.3244C6.21467 9.93013 6.44553 9.37277 6.42603 8.79568L6.41542 8.48183C6.37632 7.32478 7.32478 6.37632 8.48183 6.41542L8.79568 6.42603C9.37277 6.44553 9.93013 6.21467 10.3244 5.79281L10.5388 5.56339Z" fill="white"/>
<path d="M10.7217 5.73438C11.4134 4.99429 12.5866 4.99429 13.2783 5.73438L13.4932 5.96387C13.9367 6.43827 14.5638 6.69772 15.2129 6.67578L15.5264 6.66504C16.5388 6.63082 17.3692 7.46121 17.335 8.47363L17.3242 8.78711C17.3023 9.4362 17.5617 10.0633 18.0361 10.5068L18.2656 10.7217C19.0057 11.4134 19.0057 12.5866 18.2656 13.2783L18.0361 13.4932C17.5617 13.9367 17.3023 14.5638 17.3242 15.2129L17.335 15.5264C17.3692 16.5388 16.5388 17.3692 15.5264 17.335L15.2129 17.3242C14.5638 17.3023 13.9367 17.5617 13.4932 18.0361L13.2783 18.2656C12.5866 19.0057 11.4134 19.0057 10.7217 18.2656L10.5068 18.0361C10.0633 17.5617 9.4362 17.3023 8.78711 17.3242L8.47363 17.335C7.46121 17.3692 6.63082 16.5388 6.66504 15.5264L6.67578 15.2129C6.69772 14.5638 6.43827 13.9367 5.96387 13.4932L5.73438 13.2783C4.99429 12.5866 4.99429 11.4134 5.73438 10.7217L5.96387 10.5068C6.43827 10.0633 6.69772 9.4362 6.67578 8.78711L6.66504 8.47363C6.63082 7.46121 7.46121 6.63082 8.47363 6.66504L8.78711 6.67578C9.4362 6.69772 10.0633 6.43827 10.5068 5.96387L10.7217 5.73438Z" stroke="#F5F5F5" stroke-width="0.5"/>
</g>
<g filter="url(#filter1_d_2015_549)">
<path d="M11.4155 8.62536C11.7317 8.28703 12.2683 8.28703 12.5845 8.62536L12.8998 8.9628C13.0576 9.13154 13.2805 9.22389 13.5113 9.21608L13.973 9.20048C14.4358 9.18484 14.8152 9.56423 14.7995 10.027L14.7839 10.4887C14.7761 10.7195 14.8685 10.9424 15.0372 11.1002L15.3746 11.4155C15.713 11.7317 15.713 12.2683 15.3746 12.5845L15.0372 12.8998C14.8685 13.0576 14.7761 13.2805 14.7839 13.5113L14.7995 13.973C14.8152 14.4358 14.4358 14.8152 13.973 14.7995L13.5113 14.7839C13.2805 14.7761 13.0576 14.8685 12.8998 15.0372L12.5845 15.3746C12.2683 15.713 11.7317 15.713 11.4155 15.3746L11.1002 15.0372C10.9424 14.8685 10.7195 14.7761 10.4887 14.7839L10.027 14.7995C9.56423 14.8152 9.18484 14.4358 9.20048 13.973L9.21608 13.5113C9.22389 13.2805 9.13154 13.0576 8.9628 12.8998L8.62536 12.5845C8.28703 12.2683 8.28703 11.7317 8.62536 11.4155L8.9628 11.1002C9.13154 10.9424 9.22389 10.7195 9.21608 10.4887L9.20048 10.027C9.18484 9.56423 9.56423 9.18484 10.027 9.20048L10.4887 9.21608C10.7195 9.22389 10.9424 9.13154 11.1002 8.9628L11.4155 8.62536Z" fill="#ECECEC" fill-opacity="0.6" shape-rendering="crispEdges"/>
<path d="M11.5615 8.76172C11.7987 8.50803 12.2013 8.50803 12.4385 8.76172L12.7539 9.09961C12.951 9.3104 13.2301 9.42576 13.5186 9.41602L13.9795 9.40039C14.3266 9.38866 14.6113 9.67339 14.5996 10.0205L14.584 10.4814C14.5742 10.7699 14.6896 11.049 14.9004 11.2461L15.2383 11.5615C15.492 11.7987 15.492 12.2013 15.2383 12.4385L14.9004 12.7539C14.6896 12.951 14.5742 13.2301 14.584 13.5186L14.5996 13.9795C14.6113 14.3266 14.3266 14.6113 13.9795 14.5996L13.5186 14.584C13.2301 14.5742 12.951 14.6896 12.7539 14.9004L12.4385 15.2383C12.2013 15.492 11.7987 15.492 11.5615 15.2383L11.2461 14.9004C11.049 14.6896 10.7699 14.5742 10.4814 14.584L10.0205 14.5996C9.67339 14.6113 9.38866 14.3266 9.40039 13.9795L9.41602 13.5186C9.42576 13.2301 9.3104 12.951 9.09961 12.7539L8.76172 12.4385C8.50803 12.2013 8.50803 11.7987 8.76172 11.5615L9.09961 11.2461C9.3104 11.049 9.42576 10.7699 9.41602 10.4814L9.40039 10.0205C9.38866 9.67339 9.67339 9.38866 10.0205 9.40039L10.4814 9.41602C10.7699 9.42576 11.049 9.3104 11.2461 9.09961L11.5615 8.76172Z" stroke="#F5F5F5" stroke-width="0.4" shape-rendering="crispEdges"/>
</g>
<defs>
<filter id="filter0_d_2015_549" x="4.42896" y="4.92903" width="15.1421" height="15.6419" filterUnits="userSpaceOnUse" color-interpolation-filters="sRGB">
<feFlood flood-opacity="0" result="BackgroundImageFix"/>
<feColorMatrix in="SourceAlpha" type="matrix" values="0 0 0 0 0 0 0 0 0 0 0 0 0 0 0 0 0 0 127 0" result="hardAlpha"/>
<feOffset dy="1"/>
<feGaussianBlur stdDeviation="0.25"/>
<feComposite in2="hardAlpha" operator="out"/>
<feColorMatrix type="matrix" values="0 0 0 0 0.0470588 0 0 0 0 0.0470588 0 0 0 0 0.0470588 0 0 0 0.22 0"/>
<feBlend mode="normal" in2="BackgroundImageFix" result="effect1_dropShadow_2015_549"/>
<feBlend mode="normal" in="SourceGraphic" in2="effect1_dropShadow_2015_549" result="shape"/>
</filter>
<filter id="filter1_d_2015_549" x="7.87158" y="7.87161" width="8.25684" height="8.25677" filterUnits="userSpaceOnUse" color-interpolation-filters="sRGB">
<feFlood flood-opacity="0" result="BackgroundImageFix"/>
<feColorMatrix in="SourceAlpha" type="matrix" values="0 0 0 0 0 0 0 0 0 0 0 0 0 0 0 0 0 0 127 0" result="hardAlpha"/>
<feOffset/>
<feGaussianBlur stdDeviation="0.25"/>
<feComposite in2="hardAlpha" operator="out"/>
<feColorMatrix type="matrix" values="0 0 0 0 0.0470588 0 0 0 0 0.0470588 0 0 0 0 0.0470588 0 0 0 0.04 0"/>
<feBlend mode="normal" in2="BackgroundImageFix" result="effect1_dropShadow_2015_549"/>
<feBlend mode="normal" in="SourceGraphic" in2="effect1_dropShadow_2015_549" result="shape"/>
</filter>
</defs>
</svg>
